<svg width="40" height="40" viewBox="0 0 40 40" fill="none" xmlns="http://www.w3.org/2000/svg">
<path fill-rule="evenodd" clip-rule="evenodd" d="M1 6.66731C0.45 6.66731 0 7.41738 0 8.33413V30.0029C0 31.8468 0.89375 33.3365 2 33.3365H4C5.10625 33.3365 6 31.8468 6 30.0029V6.66731H1ZM3.70711 27.1574C3.51957 26.8448 3.26522 26.6692 3 26.6692C2.73478 26.6692 2.48043 26.8448 2.29289 27.1574C2.10536 27.47 2 27.894 2 28.3361C2 28.7781 2.10536 29.2021 2.29289 29.5147C2.48043 29.8273 2.73478 30.0029 3 30.0029C3.26522 30.0029 3.51957 29.8273 3.70711 29.5147C3.89464 29.2021 4 28.7781 4 28.3361C4 27.894 3.89464 27.47 3.70711 27.1574Z" fill="#FF6C2F"/>
<path d="M21.6375 15.1681L18.4062 19.356C16.4375 21.9188 13.5812 21.252 12.1062 17.8767C10.7187 14.6993 11.0687 10.2614 12.9 7.79242L18.1 0.781325C17.375 0.270859 16.5937 0.0104175 15.8 0.0104175C14.625 -1.59256e-07 13.4812 0.58339 12.5 1.66683L8 6.66731V30.0029H9.7625L15.475 38.6912C16.7 40.556 18.5937 40.4101 19.7125 38.3683C20.0562 37.7328 20.2875 36.9931 20.4062 36.2222L21.4687 37.8474C22.6875 39.7121 24.5875 39.5767 25.7062 37.5453C25.9875 37.0348 26.1937 36.441 26.325 35.8264C27.5375 37.1807 29.1875 36.8994 30.2062 35.045C31.325 33.0136 31.2437 29.8466 30.025 27.9819L21.6375 15.1681Z" fill="#FF6C2F"/>
<path d="M20.2125 2.20855L14.1625 10.376C13.1562 11.7303 12.9625 14.168 13.725 15.9078C14.5312 17.7621 16.1 18.1267 17.1812 16.7204L23.3875 8.67792C23.825 8.11536 24.45 8.24038 24.7937 8.96961C25.1375 9.69885 25.0562 10.7406 24.6187 11.3136L23.3125 13.0012L32 26.3359V6.66731H31.9562L31.7125 6.40687L27.175 1.56265C26.2187 0.541719 25.1 0 23.9625 0C22.6 0 21.275 0.781325 20.2125 2.20855Z" fill="#29A0D8"/>
<path fill-rule="evenodd" clip-rule="evenodd" d="M34 6.66731V30.0029C34 31.8468 34.8937 33.3365 36 33.3365H38C39.1062 33.3365 40 31.8468 40 30.0029V8.33413C40 7.41738 39.55 6.66731 39 6.66731H34ZM36.2929 27.1574C36.1054 27.47 36 27.894 36 28.3361C36 28.7781 36.1054 29.2021 36.2929 29.5147C36.4804 29.8273 36.7348 30.0029 37 30.0029C37.2652 30.0029 37.5196 29.8273 37.7071 29.5147C37.8946 29.2021 38 28.7781 38 28.3361C38 27.894 37.8946 27.47 37.7071 27.1574C37.5196 26.8448 37.2652 26.6692 37 26.6692C36.7348 26.6692 36.4804 26.8448 36.2929 27.1574Z" fill="#29A0D8"/>
</svg>
