<svg width="40" height="40" viewBox="0 0 40 40" fill="none" xmlns="http://www.w3.org/2000/svg">
<path d="M10.7515 34.7844C10.7005 34.4733 10.7015 34.1888 10.7433 33.9005C10.7742 33.6867 10.7095 33.5881 10.53 33.69C9.548 34.2474 8.51118 33.731 7.94267 32.7684C7.688 32.3373 7.38837 31.9487 7.25031 31.4226C7.12858 30.9587 7.10829 30.4907 7.1729 30.0144C7.20332 29.7903 7.14925 29.7251 6.96646 29.7835C6.00676 30.0903 5.22808 29.7222 4.60904 28.7791C4.2863 28.2874 3.93077 27.8182 3.81416 27.1712C3.65084 26.2652 3.76281 25.4243 4.27863 24.7282C4.46019 24.4832 4.41187 24.3347 4.26616 24.1307C3.41649 22.9412 2.62784 21.6934 1.9547 20.3365C1.12255 18.6591 0.477408 16.8829 0.176775 14.9368C-0.316632 11.7428 0.229742 8.82774 1.72942 6.17873C3.14489 3.67846 5.06785 2.03831 7.35493 1.01235C8.63519 0.438046 9.95557 0.143911 11.3147 0.193672C13.3045 0.266524 15.1552 0.977693 16.8924 2.17292C18.0362 2.95991 19.079 3.92036 20.0366 5.02516C20.1401 5.1446 20.2204 5.14327 20.3514 5.10819C21.3847 4.83138 22.1428 3.97924 22.949 3.21975C24.5346 1.72584 26.2758 0.637293 28.2447 0.191132C30.5414 -0.329309 32.6948 0.23599 34.7283 1.60802C36.411 2.74337 37.7931 4.28174 38.7574 6.36222C39.466 7.89086 39.8747 9.54043 39.9716 11.3029C40.1873 15.2279 39.1646 18.6466 37.2123 21.6746C36.0878 23.4188 34.7066 24.7781 33.128 25.8328C33.0731 25.8695 33.0218 25.9145 32.9599 25.9625C33.0522 26.2992 33.1419 26.6255 33.1707 26.9735C33.2366 27.7677 32.9311 28.3333 32.4824 28.8363C31.8028 29.5982 31.0053 29.9468 30.1025 29.9556C30.0171 29.9565 29.9315 29.9224 29.8229 29.8998C29.9199 29.656 29.7812 29.5785 29.6612 29.4806C27.6762 27.8621 25.7778 26.1016 24.0379 24.088C22.7251 22.5686 21.4967 20.9573 20.6539 18.9537C20.6002 18.8259 20.5394 18.6988 20.3963 18.8009C20.2545 18.902 20.3147 19.0369 20.3655 19.1612C20.8136 20.2583 21.3989 21.2373 22.0509 22.1547C23.7366 24.527 25.6957 26.511 27.7537 28.3511C28.3365 28.8721 28.9322 29.3711 29.5291 29.8669C29.6779 29.9906 29.7156 30.1282 29.7017 30.3404C29.6411 31.2592 29.2959 31.9778 28.7296 32.5456C28.2237 33.0529 27.6722 33.428 27.0032 33.4687C26.7366 33.4849 26.5026 33.5113 26.2601 33.2494C25.9197 32.8818 25.5052 32.6232 25.1341 32.2972C22.2677 29.779 19.6915 26.8815 17.6233 23.3248C17.4128 22.9628 17.2201 22.5847 17.0093 22.223C16.952 22.1246 16.8979 21.9423 16.751 22.0611C16.6086 22.1763 16.6752 22.3181 16.7411 22.4488C17.2594 23.4775 17.8449 24.4454 18.4732 25.3719C20.6366 28.5624 23.1664 31.2286 25.9803 33.4837C26.1573 33.6255 26.1913 33.784 26.172 34.0286C26.0977 34.9702 25.6277 35.5702 25.053 36.0752C23.9902 37.0088 22.9021 36.8873 21.8068 36.1641C21.7788 36.1456 21.7364 36.1287 21.7286 36.0995C21.5896 35.5816 21.1835 35.4081 20.8848 35.1101C18.8841 33.1135 16.9583 31.0177 15.2377 28.6422C14.5689 27.719 13.944 26.7527 13.3931 25.714C13.3292 25.5933 13.283 25.4256 13.1223 25.5654C12.9747 25.6939 13.0504 25.8147 13.1186 25.9443C14.0949 27.8004 15.2917 29.4218 16.563 30.9626C18.0395 32.752 19.6085 34.4077 21.244 35.9664C21.3609 36.0778 21.466 36.2289 21.6336 36.1787C21.8642 37.0766 21.5026 38.2339 20.8448 38.7392C19.978 39.405 19.074 39.4784 18.1545 38.9504C17.892 38.7997 17.7374 38.8685 17.5632 39.112C17.296 39.4857 16.9964 39.8128 16.5886 39.9337C16.0496 40.0935 15.5439 39.964 15.1171 39.5495C14.6322 39.0786 14.1821 38.5516 14.043 37.7448C14.0123 37.5667 13.9995 37.3911 14.0055 37.2133C14.0136 36.9695 13.9384 36.9104 13.7605 37.0028C13.3342 37.2242 12.8904 37.2883 12.4528 37.0969C11.5691 36.7103 11.0297 35.9075 10.7515 34.7844ZM17.6336 15.4619C18.6283 14.6417 19.435 13.5691 20.209 12.4566C20.5605 11.9514 21.0029 11.6987 21.5207 11.6431C21.8135 11.6117 22.1101 11.6408 22.4049 11.6341C22.7023 11.6274 22.8666 11.7909 22.9906 12.1436C23.6174 13.9257 24.4243 15.5828 25.366 17.1301C27.3123 20.3278 29.6555 22.9963 32.3524 25.1893C32.6264 25.4121 32.8255 25.411 33.1036 25.2182C34.862 23.9989 36.3324 22.3845 37.4714 20.3154C38.9859 17.5642 39.7531 14.5469 39.5162 11.1835C39.3735 9.15723 38.8277 7.31549 37.8666 5.67215C36.7814 3.81662 35.342 2.51748 33.6724 1.59577C31.6462 0.477125 29.5599 0.261069 27.4198 1.00229C25.7264 1.58877 24.2406 2.66947 22.8624 4.00387C22.3352 4.51432 21.8385 5.08531 21.1801 5.34362C20.8003 5.49265 20.4239 5.65514 20.047 5.81548C18.9521 6.28126 17.9464 6.92626 17.2116 8.08529C16.9502 8.49754 16.7226 8.94287 16.4765 9.37029C15.7061 10.7079 14.7968 11.8645 13.6534 12.7117C13.0836 13.1338 12.6434 13.7155 12.3288 14.4323C11.8965 15.4174 12.3829 16.6219 13.2767 16.7989C13.894 16.9211 14.5139 16.9134 15.1311 16.7757C16.0325 16.5746 16.8474 16.1158 17.6336 15.4619ZM5.44519 28.9867C6.09086 29.4663 6.80916 29.4391 7.36841 28.8878C8.1248 28.1421 8.87657 27.3888 9.62135 26.6251C10.2748 25.9551 10.4338 24.8555 10.0021 23.9644C9.77955 23.5051 9.50769 23.083 9.1891 22.7199C8.62293 22.0746 7.71358 21.9853 7.13653 22.5434C6.32435 23.3289 5.52089 24.1298 4.73487 24.9554C4.27516 25.4383 4.10473 26.0962 4.22291 26.8346C4.37011 27.7545 4.88101 28.3732 5.44519 28.9867ZM13.0576 30.2112C13.2448 29.6416 13.2151 29.0766 12.9837 28.5464C12.7543 28.0206 12.4523 27.5507 12.0841 27.166C11.4593 26.5131 10.6807 26.5347 10.0564 27.1891C9.92836 27.3233 9.79643 27.4517 9.66598 27.5823C9.16279 28.086 8.65616 28.5845 8.15717 29.0945C7.68561 29.5765 7.49896 30.1917 7.61823 30.9485C7.74096 31.7272 8.1711 32.2603 8.58582 32.7883C9.11995 33.4683 10.0502 33.561 10.6701 32.8925C11.2904 32.2235 11.9424 31.5999 12.5839 30.9619C12.7805 30.7663 12.9465 30.5458 13.0576 30.2112ZM12.1847 36.3311C12.7971 36.7842 13.4016 36.7495 13.9345 36.1901C14.3666 35.7366 14.7862 35.2627 15.1926 34.7736C15.5334 34.3634 15.6517 33.8434 15.5906 33.2542C15.5124 32.4996 15.1126 32.006 14.6744 31.5781C14.086 31.0036 13.41 31.0446 12.8389 31.6507C12.3908 32.1262 11.954 32.6209 11.5351 33.136C11.2282 33.5132 11.1413 34.0098 11.1881 34.5364C11.259 35.3335 11.707 35.8163 12.178 36.3239C12.1802 36.3263 12.1824 36.3287 12.1847 36.3311ZM14.8865 38.5072C14.9865 38.6352 15.084 38.7664 15.1868 38.8906C15.7746 39.6007 16.5159 39.5988 17.0964 38.8875C17.3747 38.5464 17.6551 38.208 17.93 37.8629C18.2382 37.476 18.3514 37.0209 18.2531 36.4779C18.1316 35.807 17.7567 35.373 17.3464 34.9962C16.767 34.4641 16.1576 34.554 15.6448 35.1859C15.4125 35.4721 15.1952 35.7816 14.9425 36.0364C14.2675 36.7169 14.3375 37.7939 14.8865 38.5072Z" fill="#FF6C2F"/>
<path d="M17.6336 15.4619C18.6283 14.6417 19.435 13.5691 20.209 12.4566C20.5605 11.9514 21.0029 11.6987 21.5207 11.6431C21.8135 11.6117 22.1101 11.6408 22.4049 11.6341C22.7023 11.6274 22.8666 11.7909 22.9906 12.1436C23.6174 13.9257 24.4243 15.5828 25.366 17.1301C27.3123 20.3278 29.6555 22.9963 32.3524 25.1893C32.6264 25.4121 32.8255 25.411 33.1036 25.2182C34.862 23.9989 36.3324 22.3845 37.4714 20.3154C38.9859 17.5642 39.7531 14.5469 39.5162 11.1835C39.3735 9.15723 38.8277 7.31549 37.8666 5.67215C36.7814 3.81662 35.342 2.51748 33.6724 1.59577C31.6462 0.477125 29.5599 0.261069 27.4198 1.00229C25.7264 1.58877 24.2406 2.66947 22.8624 4.00387C22.3352 4.51432 21.8385 5.08531 21.1801 5.34362C20.8003 5.49265 20.4239 5.65514 20.047 5.81548C18.9521 6.28126 17.9464 6.92626 17.2116 8.08529C16.9502 8.49754 16.7226 8.94287 16.4765 9.37029C15.7061 10.7079 14.7968 11.8645 13.6534 12.7117C13.0836 13.1338 12.6434 13.7155 12.3288 14.4323C11.8965 15.4174 12.3829 16.6219 13.2767 16.7989C13.894 16.9211 14.5139 16.9134 15.1311 16.7757C16.0325 16.5746 16.8474 16.1158 17.6336 15.4619Z" fill="#29A0D8"/>
<path d="M5.44519 28.9867C6.09086 29.4663 6.80916 29.4391 7.36841 28.8878C8.1248 28.1421 8.87657 27.3888 9.62135 26.6251C10.2748 25.9551 10.4338 24.8555 10.0021 23.9644C9.77955 23.5051 9.50769 23.083 9.1891 22.7199C8.62293 22.0746 7.71358 21.9853 7.13653 22.5434C6.32435 23.3289 5.52089 24.1298 4.73487 24.9554C4.27516 25.4383 4.10473 26.0962 4.22291 26.8346C4.37011 27.7545 4.88101 28.3732 5.44519 28.9867Z" fill="#29A0D8"/>
<path d="M13.0576 30.2112C13.2448 29.6416 13.2151 29.0766 12.9837 28.5464C12.7543 28.0206 12.4523 27.5507 12.0841 27.166C11.4593 26.5131 10.6807 26.5347 10.0564 27.1891C9.92836 27.3233 9.79643 27.4517 9.66598 27.5823C9.16279 28.086 8.65616 28.5845 8.15717 29.0945C7.68561 29.5765 7.49896 30.1917 7.61823 30.9485C7.74096 31.7272 8.1711 32.2603 8.58582 32.7883C9.11995 33.4683 10.0502 33.561 10.6701 32.8925C11.2904 32.2235 11.9424 31.5999 12.5839 30.9619C12.7805 30.7663 12.9465 30.5458 13.0576 30.2112Z" fill="#29A0D8"/>
<path d="M12.1847 36.3311C12.7971 36.7842 13.4016 36.7495 13.9345 36.1901C14.3666 35.7366 14.7862 35.2627 15.1926 34.7736C15.5334 34.3634 15.6517 33.8434 15.5906 33.2542C15.5124 32.4996 15.1126 32.006 14.6744 31.5781C14.086 31.0036 13.41 31.0446 12.8389 31.6507C12.3908 32.1262 11.954 32.6209 11.5351 33.136C11.2282 33.5132 11.1413 34.0098 11.1881 34.5364C11.259 35.3335 11.707 35.8163 12.178 36.3239L12.1847 36.3311Z" fill="#29A0D8"/>
<path d="M14.8865 38.5072C14.9865 38.6352 15.084 38.7664 15.1868 38.8906C15.7746 39.6007 16.5159 39.5988 17.0964 38.8875C17.3747 38.5464 17.6551 38.208 17.93 37.8629C18.2382 37.476 18.3514 37.0209 18.2531 36.4779C18.1316 35.807 17.7567 35.373 17.3464 34.9962C16.767 34.4641 16.1576 34.554 15.6448 35.1859C15.4125 35.4721 15.1952 35.7816 14.9425 36.0364C14.2675 36.7169 14.3375 37.7939 14.8865 38.5072Z" fill="#29A0D8"/>
</svg>
