<svg width="40" height="40" viewBox="0 0 40 40" fill="none" xmlns="http://www.w3.org/2000/svg">
<path d="M17.0677 9.4496C16.7969 9.51281 16.5476 9.65102 16.3462 9.8496L14.0385 12.1008L16.1062 14.4496L17.9323 12.6496H21.6338L23.0769 14.352V16.7024L19.1338 19.4512C18.9231 19.6005 18.7513 19.8019 18.6339 20.0373C18.5166 20.2728 18.4573 20.5348 18.4615 20.8V24H21.5385V21.6992L25.4815 18.9504C25.6925 18.801 25.8644 18.5993 25.9818 18.3636C26.0992 18.1278 26.1583 17.8654 26.1538 17.6V13.7504C26.1518 13.3637 26.0152 12.9908 25.7692 12.7008L23.4615 10C23.3179 9.82816 23.1407 9.69018 22.9417 9.59526C22.7428 9.50035 22.5266 9.45069 22.3077 9.4496H17.4031C17.2916 9.43689 17.1792 9.43689 17.0677 9.4496Z" fill="#29A0D8"/>
<path fill-rule="evenodd" clip-rule="evenodd" d="M20 0C9.11538 0 0 8.128 0 18.4C0 23.248 2.09077 27.5968 5.38462 30.8496C4.98413 31.9381 4.41564 32.9514 3.70154 33.8496C2.75507 35.0435 1.70951 36.1486 0.576923 37.152C0.328486 37.3593 0.148036 37.6417 0.0604754 37.9601C-0.0270856 38.2786 -0.0174404 38.6175 0.0880797 38.9301C0.1936 39.2426 0.389793 39.5134 0.649583 39.705C0.909373 39.8967 1.21995 39.9997 1.53846 40C4.94615 40 7.39692 39.96 9.61538 39.3504C11.6 38.8032 13.3062 37.6576 15.0477 36.0496C16.6323 36.4448 18.2677 36.8 20 36.8C30.8846 36.8 40 28.672 40 18.4C40 8.128 30.8846 0 20 0ZM20 3.2C29.4231 3.2 36.9231 10.112 36.9231 18.4C36.9231 26.688 29.4231 33.6 20 33.6C18.3246 33.6 16.5846 33.2992 15 32.8496C14.7466 32.7833 14.4811 32.7853 14.2287 32.8553C13.9762 32.9253 13.745 33.061 13.5569 33.2496C11.8262 34.976 10.5508 35.7808 8.84615 36.2496C8.3309 36.3914 7.50116 36.4181 6.68981 36.4441C6.26566 36.4577 5.84654 36.4711 5.48 36.5008C5.57963 36.3839 5.67631 36.2923 5.77215 36.2014C5.88349 36.0959 5.99371 35.9915 6.10615 35.8496C7.31539 34.3136 8.41846 32.6896 8.75077 30.8496C8.79654 30.5734 8.77175 30.2895 8.67887 30.0264C8.58599 29.7633 8.42828 29.5302 8.22154 29.3504C4.99846 26.5824 3.07692 22.7024 3.07692 18.4C3.07692 10.112 10.5769 3.2 20 3.2Z" fill="#FF6C2F"/>
<path d="M18.4615 25.6V28.8H21.5385V25.6H18.4615Z" fill="#29A0D8"/>
</svg>
