<?xml version="1.0" encoding="utf-8"?>

<!DOCTYPE svg PUBLIC "-//W3C//DTD SVG 1.1//EN" "http://www.w3.org/Graphics/SVG/1.1/DTD/svg11.dtd">
<!-- Uploaded to: SVG Repo, www.svgrepo.com, Generator: SVG Repo Mixer Tools -->
<svg version="1.1" id="_x32_" xmlns="http://www.w3.org/2000/svg" xmlns:xlink="http://www.w3.org/1999/xlink" 
	 width="800px" height="800px" viewBox="0 0 512 512"  xml:space="preserve">
<style type="text/css">
<![CDATA[
	.st0{fill:#000000;}
]]>
</style>
<g>
	<polygon class="st0" points="243.469,174.813 337.172,268.531 350.25,255.453 256.547,161.75 	"/>
	<polygon class="st0" points="161.75,256.531 255.469,350.25 268.531,337.156 174.844,243.469 	"/>
	<path class="st0" d="M372.938,151.766c4.219-4.203,4.219-11.047,0-15.234c-4.219-4.219-11.031-4.219-15.234,0
		c-4.219,4.188-4.219,11.031,0,15.234C361.906,155.969,368.719,155.969,372.938,151.766z"/>
	<path class="st0" d="M367.5,85.313c4.219-4.219,4.219-11.063,0-15.281c-4.219-4.188-11.047-4.188-15.25,0
		c-4.219,4.25-4.219,11.063,0,15.281C356.453,89.531,363.281,89.531,367.5,85.313z"/>
	<path class="st0" d="M439.406,157.219c4.219-4.219,4.219-11.063,0-15.266s-11.031-4.203-15.25,0
		c-4.219,4.219-4.219,11.047,0,15.266C428.359,161.438,435.188,161.438,439.406,157.219z"/>
	<path class="st0" d="M151.781,372.938c4.203-4.219,4.203-11.047,0-15.25c-4.219-4.219-11.047-4.219-15.25,0
		c-4.219,4.219-4.219,11.031,0,15.25C140.734,377.141,147.563,377.141,151.781,372.938z"/>
	<path class="st0" d="M70.063,352.234c-4.219,4.203-4.219,11.031,0,15.25c4.219,4.203,11.047,4.219,15.25,0
		c4.219-4.219,4.219-11.047,0-15.25C81.109,348.031,74.281,348.016,70.063,352.234z"/>
	<path class="st0" d="M141.969,424.141c-4.219,4.203-4.203,11.047,0,15.234c4.219,4.219,11.047,4.219,15.266,0
		c4.203-4.188,4.203-11.031,0-15.234C153.016,419.938,146.188,419.938,141.969,424.141z"/>
	<path class="st0" d="M486.969,297.406l-41.375-41.391l41.375-41.422c8.547-8.531,14.891-18.703,19-29.641
		c4.125-10.922,6.031-22.672,6.031-34.609c0-17.781-4.25-36.109-12.125-53.734c-7.938-17.672-19.578-34.703-34.688-49.797
		c-15.125-15.109-32.125-26.75-49.781-34.688C397.734,4.219,379.438,0,361.656,0c-11.969,0-23.672,1.906-34.609,6.031
		c-10.938,4.109-21.109,10.453-29.641,19l-41.375,41.406l-41.438-41.406c-8.531-8.547-18.656-14.891-29.641-19
		C174.016,1.906,162.313,0,150.375,0c-17.813,0-36.109,4.219-53.781,12.125c-17.656,7.938-34.656,19.578-49.781,34.688
		C31.703,61.906,20.094,78.938,12.141,96.609C4.25,114.234,0.031,132.563,0,150.344c0,11.938,1.938,23.688,6.031,34.609
		c4.109,10.938,10.453,21.109,19,29.641l41.406,41.422l-41.406,41.391c-8.547,8.531-14.891,18.656-19,29.625
		C1.938,337.984,0,349.688,0,361.625c0.031,17.813,4.25,36.109,12.141,53.781c7.953,17.656,19.563,34.656,34.672,49.75
		c15.125,15.141,32.125,26.75,49.781,34.656c17.672,7.938,35.969,12.156,53.781,12.188c11.938-0.031,23.641-1.938,34.578-6.031
		c10.984-4.141,21.109-10.453,29.641-19l41.438-41.375l41.375,41.375c8.531,8.547,18.703,14.859,29.641,19
		c10.938,4.094,22.641,6,34.609,6.031c17.781-0.031,36.078-4.25,53.75-12.188c17.656-7.906,34.688-19.516,49.781-34.656
		c15.109-15.094,26.75-32.094,34.688-49.75C507.75,397.734,512,379.438,512,361.625c0-11.938-1.906-23.641-6.031-34.594
		C501.859,316.063,495.516,305.938,486.969,297.406z M49,190.625c-5-5-8.656-10.844-11.219-17.594
		c-2.531-6.719-3.875-14.375-3.875-22.688c0-12.344,3-26.125,9.188-39.875c6.156-13.75,15.469-27.438,27.688-39.688
		C83.047,58.5,96.719,49.25,110.469,43.063s27.547-9.156,39.906-9.156c8.297,0,15.938,1.313,22.688,3.875
		C179.781,40.313,185.625,44,190.625,49l41.422,41.406L90.406,232.047L49,190.625z M232.047,421.625L190.625,463
		c-5,5-10.844,8.656-17.594,11.219c-6.719,2.531-14.359,3.875-22.656,3.859c-12.359,0.016-26.156-2.984-39.906-9.172
		c-13.75-6.156-27.422-15.469-39.688-27.688c-12.219-12.266-21.531-25.938-27.688-39.688c-6.188-13.75-9.188-27.547-9.188-39.906
		c0-8.297,1.344-15.938,3.875-22.688C40.313,332.219,44,326.375,49,321.375l41.406-41.391l23.969-23.969l141.656-141.625L280,90.406
		L321.375,49c5-5,10.844-8.688,17.594-11.219c6.719-2.563,14.375-3.875,22.688-3.875c12.344,0,26.125,2.969,39.875,9.156
		s27.453,15.438,39.688,27.719c12.266,12.25,21.531,25.938,27.719,39.688c6.156,13.75,9.156,27.531,9.156,39.875
		c0,8.313-1.313,15.969-3.875,22.688c-2.531,6.75-6.219,12.594-11.219,17.594l-41.375,41.422l-23.969,23.969L256.031,397.641
		L232.047,421.625z M468.938,401.531c-6.188,13.75-15.453,27.422-27.719,39.688c-12.234,12.219-25.938,21.531-39.688,27.688
		c-13.75,6.188-27.531,9.188-39.875,9.172c-8.313,0.016-15.969-1.328-22.688-3.859c-6.75-2.563-12.594-6.219-17.594-11.219
		L280,421.625l141.625-141.641L463,321.375c5,5,8.688,10.844,11.219,17.563c2.563,6.75,3.875,14.391,3.875,22.688
		C478.094,373.984,475.125,387.781,468.938,401.531z"/>
	<path class="st0" d="M306.5,146.313c4.219-4.219,4.188-11.031,0-15.25c-4.219-4.188-11.031-4.188-15.25,0
		c-4.234,4.219-4.234,11.063,0,15.25C295.469,150.531,302.281,150.531,306.5,146.313z"/>
	<path class="st0" d="M363.125,202.984c-4.188,4.188-4.188,11.031,0,15.25c4.234,4.188,11.063,4.188,15.25,0
		c4.219-4.219,4.219-11.063,0-15.25C374.188,198.766,367.359,198.766,363.125,202.984z"/>
	<path class="st0" d="M146.344,306.469c4.188-4.188,4.188-11.031,0-15.25c-4.219-4.203-11.063-4.203-15.25,0
		c-4.219,4.219-4.219,11.063,0,15.25C135.281,310.688,142.125,310.688,146.344,306.469z"/>
	<path class="st0" d="M202.984,363.125c-4.219,4.234-4.219,11.031,0,15.25s11.031,4.219,15.25,0c4.234-4.219,4.234-11.016,0-15.25
		C214.016,358.906,207.203,358.906,202.984,363.125z"/>
	<path class="st0" d="M360.234,357.688c-4.203,4.203-4.203,11.031,0,15.25c4.203,4.203,11.047,4.203,15.25,0
		c4.219-4.219,4.219-11.031,0-15.25C371.281,353.469,364.438,353.469,360.234,357.688z"/>
	<path class="st0" d="M426.688,352.234c-4.203,4.203-4.219,11.031,0,15.25s11.063,4.203,15.25,0c4.219-4.203,4.219-11.047,0-15.25
		C437.719,348.016,430.906,348.031,426.688,352.234z"/>
	<path class="st0" d="M354.781,424.141c-4.219,4.203-4.219,11.047,0,15.266c4.219,4.188,11.047,4.188,15.25,0
		c4.219-4.219,4.219-11.063,0-15.266C365.828,419.938,359,419.938,354.781,424.141z"/>
	<path class="st0" d="M154.313,151.766c4.219-4.203,4.219-11.047,0-15.234c-4.219-4.219-11.031-4.219-15.25,0
		c-4.219,4.188-4.219,11.031,0,15.234S150.094,155.969,154.313,151.766z"/>
	<path class="st0" d="M159.766,85.313c4.203-4.219,4.203-11.031,0-15.281c-4.203-4.188-11.047-4.188-15.25,0
		c-4.219,4.219-4.219,11.063,0,15.281C148.719,89.531,155.563,89.531,159.766,85.313z"/>
	<path class="st0" d="M87.859,141.953c-4.203-4.203-11.047-4.203-15.266,0c-4.188,4.203-4.188,11.047,0,15.266
		c4.219,4.219,11.063,4.219,15.266,0S92.063,146.172,87.859,141.953z"/>
</g>
</svg>