<svg width="47" height="47" viewBox="0 0 47 47" fill="none" xmlns="http://www.w3.org/2000/svg">
<g id="Layer_2" clip-path="url(#clip0_991_1425)">
<path id="Vector" d="M2.92912 29.6919C1.89876 29.6919 1.06268 28.8481 1.06268 27.8082V27.1479C1.06268 26.108 1.89876 25.2642 2.92912 25.2642H44.0709C45.1013 25.2642 45.9373 26.108 45.9373 27.1479V27.8082C45.9373 28.8481 45.1013 29.6919 44.0709 29.6919H2.92912Z" stroke="#014C67" stroke-miterlimit="10"/>
<path id="Vector_2" d="M43.8064 29.5654V34.7016C43.8064 39.3407 40.0798 43.1017 35.4833 43.1017H11.7674C7.17088 43.1017 3.44427 39.3407 3.44427 34.7016V29.5654" stroke="#014C67" stroke-miterlimit="10"/>
<path id="Vector_3" d="M7.73871 42.0542V44.1669C7.73871 45.1448 8.52464 45.9367 9.49233 45.9367C10.4613 45.9367 11.246 45.1435 11.246 44.1669V43.1017" stroke="#014C67" stroke-miterlimit="10"/>
<path id="Vector_4" d="M39.1999 42.0542V44.1669C39.1999 45.1448 38.4139 45.9367 37.4463 45.9367C36.4773 45.9367 35.6926 45.1435 35.6926 44.1669V43.1017" stroke="#014C67" stroke-miterlimit="10"/>
<path id="Vector_5" d="M36.7418 22.6708H31.1913C30.3703 22.6708 29.7047 23.3425 29.7047 24.1712V35.3392C29.7047 36.1679 30.3703 36.8396 31.1913 36.8396H36.7418C37.5628 36.8396 38.2284 36.1679 38.2284 35.3392V24.1712C38.2284 23.3425 37.5628 22.6708 36.7418 22.6708Z" fill="#FF7552" stroke="#014C67" stroke-miterlimit="10"/>
<path id="Vector_6" d="M29.7047 32.3232H38.2284" stroke="#014C67" stroke-miterlimit="10"/>
<path id="Vector_7" d="M19.1717 5.64903C21.6698 5.08594 24.1511 6.67581 24.709 9.19697L15.6563 11.2375C15.0983 8.71637 16.6736 6.21211 19.1717 5.64903Z" stroke="#014C67" stroke-miterlimit="10"/>
<path id="Vector_8" d="M7.01294 25.2641V7.19758C7.01294 3.80971 9.73425 1.06323 13.0898 1.06323C15.321 1.06323 17.3717 2.29668 18.4347 4.27652L19.1705 5.64913" stroke="#014C67" stroke-miterlimit="10"/>
</g>
<defs>
<clipPath id="clip0_991_1425">
<rect width="47" height="47" fill="white"/>
</clipPath>
</defs>
</svg>
