<svg width="46" height="57" viewBox="0 0 46 57" fill="none" xmlns="http://www.w3.org/2000/svg">
<g id="Layer_2" clip-path="url(#clip0_991_1390)">
<path id="Vector" d="M29.3254 20.7123L28.5627 22.8106C28.438 23.1549 28.0628 23.3376 27.7147 23.2241L23.2913 21.7812C22.9408 21.6664 22.7458 21.2949 22.8519 20.9419L23.7702 17.8686C24.8205 14.3558 28.0517 11.949 31.7186 11.949H35.2028C40.4791 11.949 44.7556 16.2257 44.7556 21.5023V25.8111H40.1113V22.7501V36.8208H28.2788V33.3772L28.9255 33.2871C29.6697 33.1834 30.3017 32.6872 30.5818 31.9899C30.904 31.1827 30.6966 30.2607 30.0585 29.6719L28.2788 28.0279V23.1216" fill="#FF7552"/>
<path id="Vector_2" d="M28.2281 57V23.1191" stroke="#014C67" stroke-miterlimit="10"/>
<path id="Vector_3" d="M29.3254 20.7123L28.5627 22.8106C28.438 23.1549 28.0628 23.3376 27.7147 23.2241L23.2913 21.7812C22.9408 21.6664 22.7458 21.2949 22.8519 20.9419L23.7702 17.8686C24.8205 14.3558 28.0517 11.949 31.7186 11.949H35.2028C40.6827 11.949 44.7556 16.3924 44.7556 21.8725V35.1941C44.7556 36.511 43.688 37.5787 42.3711 37.5787H42.4945C41.1776 37.5787 40.11 36.511 40.11 35.1941V22.7489" stroke="#014C67" stroke-miterlimit="10"/>
<path id="Vector_4" d="M40.131 23.7363V57" stroke="#014C67" stroke-miterlimit="10"/>
<g id="Vector_5">
<path d="M23.4934 22L22 28.8305L27.1714 33.0048C28.1785 33.8182 29.6645 33.6083 30.4075 32.5469C31.09 31.5718 30.8889 30.2314 29.9496 29.4994L26.8135 27.0581L27.6083 23.3417" fill="#FEF7F2"/>
<path d="M23.4934 22L22 28.8305L27.1714 33.0048C28.1785 33.8182 29.6645 33.6083 30.4075 32.5469C31.09 31.5718 30.8889 30.2314 29.9496 29.4994L26.8135 27.0581L27.6083 23.3417L23.4934 22Z" stroke="#014C67" stroke-miterlimit="10"/>
</g>
<path id="Vector_6" d="M40.131 36.7925H28.2281" stroke="#014C67" stroke-miterlimit="10"/>
<path id="Vector_7" d="M34.1796 41.7024V57" stroke="#014C67" stroke-miterlimit="10"/>
<path id="Vector_8" d="M44.7531 25.8754H40.1088" stroke="#014C67" stroke-miterlimit="10"/>
<path id="Vector_9" d="M15.2491 31.7591V51.6309H1.24683V31.9442C1.24683 25.5939 5.56043 20.0544 11.718 18.5005L20.0206 26.2579C20.381 26.5949 20.9166 26.6652 21.3511 26.4319L22.394 25.8753" stroke="#014C67" stroke-miterlimit="10"/>
<path id="Vector_10" d="M3.09668 25.2578V25.478C3.09668 25.8903 3.43115 26.2247 3.84338 26.2247H8.40383C8.81606 26.2247 9.15054 25.8903 9.15054 25.478V24.1919" stroke="#014C67" stroke-miterlimit="10"/>
<path id="Vector_11" d="M4.10547 26.2236V30.8534C4.10547 31.0793 4.17582 31.299 4.30788 31.4829L6.61711 34.6945C7.19719 35.5017 8.29071 35.7473 9.16084 35.2659C10.1939 34.6945 10.4926 33.3466 9.79647 32.3925L8.30059 30.3424C8.16606 30.1585 8.09324 29.9351 8.09324 29.7068V26.2249" stroke="#014C67" stroke-miterlimit="10"/>
<path id="Vector_12" d="M16.4018 24.2708V29.8077C16.4018 31.1518 15.312 32.2417 13.9679 32.2417H12.7683C11.9265 32.2417 11.244 31.5591 11.244 30.7174" stroke="#014C67" stroke-miterlimit="10"/>
<path id="Vector_13" d="M16.4709 29.2115L20.2452 31.9405C20.5389 32.1269 20.9092 32.1454 21.219 31.9862L24.133 30.4964" stroke="#014C67" stroke-miterlimit="10"/>
<path id="Vector_14" d="M3.48077 51.6309V57" stroke="#014C67" stroke-miterlimit="10"/>
<path id="Vector_15" d="M13.8359 51.6309V57" stroke="#014C67" stroke-miterlimit="10"/>
<path id="Vector_16" d="M9.14587 51.6309V57" stroke="#014C67" stroke-miterlimit="10"/>
<path id="Vector_17" d="M36.653 12.081C36.9134 12.1415 37.0294 12.4464 36.8739 12.6636L34.498 15.9949C34.087 16.5713 33.2391 16.596 32.7935 16.0443L30.2128 12.7315C30.0425 12.513 30.1609 12.1909 30.4325 12.1341L30.7015 12.0786C30.7262 12.0736 30.7521 12.0712 30.7781 12.0712H36.569C36.5974 12.0712 36.6258 12.0749 36.653 12.081Z" fill="white" stroke="#014C67" stroke-miterlimit="10"/>
<circle id="Ellipse 56" cx="34" cy="5" r="4.5" stroke="#014C67"/>
<circle id="Ellipse 57" cx="13" cy="13" r="4.5" stroke="#014C67"/>
<path id="Vector_18" d="M12.3872 9.63133C12.3872 9.63133 13.2178 11.0975 16.6788 11.0975C16.6788 11.0975 18.6931 6.69906 12.6336 5.9049C12.6336 5.9049 10.132 2.90421 6.96871 4.4351C3.8054 5.96599 5.05134 9.50916 6.57416 9.75351C6.57416 9.75351 6.181 12.2105 8.38494 12.9986C8.38494 12.9986 11.0042 13.1745 12.3886 9.63133H12.3872Z" fill="#FEF7F2" stroke="#014C67" stroke-miterlimit="10"/>
</g>
<defs>
<clipPath id="clip0_991_1390">
<rect width="46" height="57" fill="white"/>
</clipPath>
</defs>
</svg>
