<svg width="49" height="45" viewBox="0 0 49 45" fill="none" xmlns="http://www.w3.org/2000/svg">
<g id="Layer_2" clip-path="url(#clip0_991_1434)">
<path id="Vector" d="M35.8173 22.5V41.4028C35.8173 42.8 34.6554 43.9339 33.2206 43.9339H3.66458C2.23116 43.9339 1.06787 42.8013 1.06787 41.4028V3.59721C1.06787 2.19872 2.22981 1.06616 3.66458 1.06616H33.222C34.6554 1.06616 35.8187 2.19872 35.8187 3.59721V22.5" stroke="#014C67" stroke-miterlimit="10"/>
<path id="Vector_2" d="M5.51336 10.0631H1.10181V3.59589C1.10181 2.19872 2.26374 1.06616 3.69716 1.06616H33.2559C34.6893 1.06616 35.8513 2.19872 35.8513 3.59589V10.0631H5.51336Z" stroke="#014C67" stroke-miterlimit="10"/>
<path id="Vector_3" d="M26.4852 5.36616V5.63077C26.4852 6.39816 25.8472 7.02001 25.0599 7.02001H20.5805C19.7932 7.02001 19.1552 6.39816 19.1552 5.63077V5.36616C19.1552 4.59877 19.7932 3.97693 20.5805 3.97693H25.0599C25.8472 3.97693 26.4852 4.59877 26.4852 5.36616Z" stroke="#014C67" stroke-miterlimit="10"/>
<path id="Vector_4" d="M6.93862 5.36616V5.63077C6.93862 6.39816 6.30064 7.02001 5.51334 7.02001C4.72605 7.02001 4.08807 6.39816 4.08807 5.63077V5.36616C4.08807 4.59877 4.72605 3.97693 5.51334 3.97693C6.30064 3.97693 6.93862 4.59877 6.93862 5.36616Z" stroke="#014C67" stroke-miterlimit="10"/>
<path id="Vector_5" d="M32.7293 5.36616V5.63077C32.7293 6.39816 32.0913 7.02001 31.304 7.02001C30.5167 7.02001 29.8787 6.39816 29.8787 5.63077V5.36616C29.8787 4.59877 30.5167 3.97693 31.304 3.97693C32.0913 3.97693 32.7293 4.59877 32.7293 5.36616Z" stroke="#014C67" stroke-miterlimit="10"/>
<path id="Vector_6" d="M47.9321 37.6267V41.6012C47.9321 42.8899 46.8611 43.9338 45.539 43.9338H33.7649C32.4428 43.9338 31.3718 42.8899 31.3718 41.6012V35.0692H47.9321V37.6267Z" fill="#FF7552"/>
<path id="Vector_7" d="M46.1675 29.6327C46.1675 30.5165 45.4331 31.2323 44.5264 31.2323H34.3717C33.4649 31.2323 32.7306 30.5165 32.7306 29.6327V28.9963C32.7306 28.1125 33.4649 27.3967 34.3717 27.3967H44.5264C45.4331 27.3967 46.1675 28.1125 46.1675 28.9963V29.6327Z" fill="#FEF7F2" stroke="#014C67" stroke-miterlimit="10"/>
<path id="Vector_8" d="M46.1675 33.4696C46.1675 34.3535 45.4331 35.0692 44.5264 35.0692H34.3717C33.4649 35.0692 32.7306 34.3535 32.7306 33.4696V32.8332C32.7306 31.9494 33.4649 31.2336 34.3717 31.2336H44.5264C45.4331 31.2336 46.1675 31.9494 46.1675 32.8332V33.4696Z" fill="#FEF7F2" stroke="#014C67" stroke-miterlimit="10"/>
<path id="Vector_9" d="M29.4674 22.5001C29.8869 23.6736 30.1163 24.9358 30.1163 26.2483C30.1163 32.533 24.8903 37.6268 18.4426 37.6268C11.995 37.6268 6.76898 32.533 6.76898 26.2483C6.76898 19.9637 11.995 14.8699 18.4426 14.8699C23.5424 14.8699 27.8779 18.0572 29.4674 22.5001Z" stroke="#014C67" stroke-miterlimit="10"/>
<path id="Vector_10" d="M25.6966 23.2621C26.0943 24.1804 26.3156 25.1899 26.3156 26.2497C26.3156 30.4875 22.7904 33.9235 18.4426 33.9235C14.0949 33.9235 10.5697 30.4875 10.5697 26.2497C10.5697 22.0118 14.0949 18.5758 18.4426 18.5758C21.7031 18.5758 24.5021 20.5088 25.6966 23.2621Z" stroke="#014C67" stroke-miterlimit="10"/>
<path id="Vector_11" d="M22.8637 25.3684C22.9234 25.6529 22.956 25.9466 22.956 26.2483C22.956 28.6602 20.9348 30.6144 18.4426 30.6144" stroke="#014C67" stroke-miterlimit="10"/>
<path id="Vector_12" d="M47.9321 37.6267V41.6012C47.9321 42.8899 46.8611 43.9338 45.539 43.9338H33.7649C32.4428 43.9338 31.3718 42.8899 31.3718 41.6012V35.0692H47.9321V37.6267Z" stroke="#014C67" stroke-miterlimit="10"/>
</g>
<defs>
<clipPath id="clip0_991_1434">
<rect width="49" height="45" fill="white"/>
</clipPath>
</defs>
</svg>
