<svg width="47" height="33" viewBox="0 0 47 33" fill="none" xmlns="http://www.w3.org/2000/svg">
<g id="Layer_2" clip-path="url(#clip0_991_1420)">
<g id="Vector">
<path d="M21.7377 6.44585V3.51956C21.7377 3.36048 21.6815 3.20653 21.5807 3.08465L20.8291 2.17893C20.4616 1.73633 20.7742 1.06409 21.3472 1.06409H25.3529C25.922 1.06409 26.2359 1.72991 25.8761 2.17251L25.1346 3.08465C25.0364 3.20653 24.9828 3.35791 24.9828 3.51443V6.44457" fill="#FF7552"/>
<path d="M21.7377 6.44585V3.51956C21.7377 3.36048 21.6815 3.20653 21.5807 3.08465L20.8291 2.17893C20.4616 1.73633 20.7742 1.06409 21.3472 1.06409H25.3529C25.922 1.06409 26.2359 1.72991 25.8761 2.17251L25.1346 3.08465C25.0364 3.20653 24.9828 3.35791 24.9828 3.51443V6.44457" stroke="#014C67" stroke-miterlimit="10"/>
</g>
<path id="Vector_2" d="M5.72156 25.5855V24.1102C5.72156 14.2973 13.6346 6.34204 23.3954 6.34204C33.1562 6.34204 41.0692 14.2973 41.0692 24.1102V25.5855" stroke="#014C67" stroke-miterlimit="10"/>
<path id="Vector_3" d="M6.58925 31.5497L5.10898 29.8909C4.8895 29.6458 4.57685 29.5047 4.2489 29.5047H2.21992C1.58187 29.5047 1.06378 28.9851 1.06378 28.3424V26.7452C1.06378 26.1037 1.5806 25.5829 2.21992 25.5829H44.7813C45.4194 25.5829 45.9375 26.1025 45.9375 26.7452V28.3424C45.9375 28.9839 45.4206 29.5047 44.7813 29.5047H42.7523C42.4244 29.5047 42.1117 29.6445 41.8923 29.8909L40.412 31.5497C40.1925 31.7947 39.8799 31.9358 39.5519 31.9358H7.44933C7.12138 31.9358 6.80873 31.796 6.58925 31.5497Z" fill="#FF7552" stroke="#014C67" stroke-miterlimit="10"/>
<path id="Vector_4" d="M8.33752 20.2615C8.33752 20.2615 8.84796 17.0542 11.1449 14.4884" stroke="#014C67" stroke-miterlimit="10"/>
</g>
<defs>
<clipPath id="clip0_991_1420">
<rect width="47" height="33" fill="white"/>
</clipPath>
</defs>
</svg>
