<svg width="52" height="52" viewBox="0 0 52 52" fill="none" xmlns="http://www.w3.org/2000/svg">
<g id="Layer_2" clip-path="url(#clip0_991_1377)">
<path id="Vector" d="M19.6168 38.0163C29.8447 38.0163 38.136 29.7517 38.136 19.5567C38.136 9.3618 29.8447 1.09717 19.6168 1.09717C9.38884 1.09717 1.09747 9.3618 1.09747 19.5567C1.09747 29.7517 9.38884 38.0163 19.6168 38.0163Z" stroke="#014C67" stroke-miterlimit="10"/>
<path id="Vector_2" d="M29.2039 29.1402L34.8221 23.5401C37.8359 20.5361 42.7249 20.5361 45.7387 23.5401C48.7525 26.5442 48.7525 31.4175 45.7387 34.4216L40.0133 39.9342" fill="#FF7552"/>
<path id="Vector_3" d="M40.0757 40.0663L34.4575 45.6664C31.4438 48.6704 26.5547 48.6704 23.5409 45.6664C20.5271 42.6623 20.5271 37.789 23.5409 34.7849L29.2663 29.2723" fill="#FEF7F2"/>
<path id="Vector_4" d="M29.1181 29.2257L40.0347 40.1071" stroke="#014C67" stroke-miterlimit="10"/>
<path id="Vector_5" d="M19.6168 21.4999C20.6934 21.4999 21.5662 20.6299 21.5662 19.5568C21.5662 18.4836 20.6934 17.6136 19.6168 17.6136C18.5401 17.6136 17.6674 18.4836 17.6674 19.5568C17.6674 20.6299 18.5401 21.4999 19.6168 21.4999Z" stroke="#014C67" stroke-miterlimit="10"/>
<path id="Vector_6" d="M19.6168 17.6136V9.97327" stroke="#014C67" stroke-miterlimit="10"/>
<path id="Vector_7" d="M21.5662 19.5568H31.4828" stroke="#014C67" stroke-miterlimit="10"/>
<path id="Vector_8" d="M19.6168 1.09717V3.62127" stroke="#014C67" stroke-miterlimit="10"/>
<path id="Vector_9" d="M19.6168 35.4902V38.0143" stroke="#014C67" stroke-miterlimit="10"/>
<path id="Vector_10" d="M1.09747 19.5568H3.54592" stroke="#014C67" stroke-miterlimit="10"/>
<path id="Vector_11" d="M35.6018 19.5568H38.0503" stroke="#014C67" stroke-miterlimit="10"/>
<path id="Vector_12" d="M45.6408 34.5185C48.6555 31.5136 48.6555 26.6415 45.6408 23.6365C42.6261 20.6316 37.7383 20.6316 34.7236 23.6365L23.5583 34.7659C20.5436 37.7708 20.5436 42.6429 23.5583 45.6478C26.573 48.6528 31.4608 48.6528 34.4755 45.6478L45.6408 34.5185Z" stroke="#014C67" stroke-miterlimit="10"/>
</g>
<defs>
<clipPath id="clip0_991_1377">
<rect width="51.0994" height="51.0888" fill="white"/>
</clipPath>
</defs>
</svg>
