<svg width="52" height="32" viewBox="0 0 52 32" fill="none" xmlns="http://www.w3.org/2000/svg">
<g id="Layer_2" clip-path="url(#clip0_991_1411)">
<path id="Vector" d="M24.2228 5.70947H6.758C5.804 5.70947 5.03064 6.56974 5.03064 7.63094V12.4867C5.03064 13.5479 5.804 14.4082 6.758 14.4082H24.2228C25.1768 14.4082 25.9502 13.5479 25.9502 12.4867V7.63094C25.9502 6.56974 25.1768 5.70947 24.2228 5.70947Z" fill="#FF7552"/>
<path id="Vector_2" d="M39.5778 5.70947H33.0977C32.1444 5.70947 31.3704 6.39872 31.3704 7.24864V12.8701C31.3704 13.72 32.1434 14.4093 33.0977 14.4093H41.2892L47.9078 14.3816" fill="#FF7552"/>
<path id="Vector_3" d="M22.0674 16.5693V18.2127" stroke="#014C67" stroke-miterlimit="10" stroke-linecap="round"/>
<path id="Vector_4" d="M25.9502 24.9751V16.569" stroke="#014C67" stroke-miterlimit="10" stroke-linecap="round"/>
<path id="Vector_5" d="M51.0537 23.4784V19.0659C51.0537 17.7062 50.4659 16.4308 49.4748 15.6362L43.1043 10.5323C42.8263 10.3095 42.5773 10.0469 42.3631 9.74993L37.2229 2.63473C36.5017 1.63632 35.4119 1.05566 34.2603 1.05566H6.44626C4.34733 1.05566 2.64587 2.94832 2.64587 5.28312V23.4795C2.64587 25.8143 4.34733 27.7069 6.44626 27.7069H47.2533C49.3522 27.7069 51.0537 25.8143 51.0537 23.4795V23.4784Z" stroke="#014C67" stroke-miterlimit="10"/>
<path id="Vector_6" d="M11.8152 30.943C14.4895 30.943 16.6575 28.5314 16.6575 25.5565C16.6575 22.5816 14.4895 20.1699 11.8152 20.1699C9.14078 20.1699 6.97278 22.5816 6.97278 25.5565C6.97278 28.5314 9.14078 30.943 11.8152 30.943Z" fill="#FEF7F2" stroke="#014C67" stroke-miterlimit="10"/>
<path id="Vector_7" d="M42.0274 30.943C44.7017 30.943 46.8697 28.5314 46.8697 25.5565C46.8697 22.5816 44.7017 20.1699 42.0274 20.1699C39.353 20.1699 37.185 22.5816 37.185 25.5565C37.185 28.5314 39.353 30.943 42.0274 30.943Z" fill="#FEF7F2" stroke="#014C67" stroke-miterlimit="10"/>
<path id="Vector_8" d="M4.61125 23.938H2.06306C1.44632 23.938 0.94635 24.4941 0.94635 25.1802V26.4634C0.94635 27.1494 1.44632 27.7056 2.06306 27.7056H4.61125C5.22799 27.7056 5.72796 27.1494 5.72796 26.4634V25.1802C5.72796 24.4941 5.22799 23.938 4.61125 23.938Z" fill="#FEF7F2" stroke="#014C67" stroke-miterlimit="10"/>
</g>
<defs>
<clipPath id="clip0_991_1411">
<rect width="52" height="32" fill="white"/>
</clipPath>
</defs>
</svg>
